<svg width="18" height="18" viewBox="0 0 18 18" fill="none" xmlns="http://www.w3.org/2000/svg">
<path d="M3 11.2504V6.37537C3 5.48026 3.35558 4.62182 3.98851 3.98888C4.62145 3.35595 5.47989 3.00037 6.375 3.00037C7.27011 3.00037 8.12855 3.35595 8.76149 3.98888C9.39442 4.62182 9.75 5.48026 9.75 6.37537V11.6254C9.75 12.1226 9.94754 12.5996 10.2992 12.9512C10.6508 13.3028 11.1277 13.5004 11.625 13.5004C12.1223 13.5004 12.5992 13.3028 12.9508 12.9512C13.3025 12.5996 13.5 12.1226 13.5 11.6254V6.62287C12.9994 6.44594 12.5774 6.09772 12.3087 5.63976C12.04 5.1818 11.9419 4.6436 12.0316 4.12027C12.1214 3.59695 12.3933 3.12221 12.7992 2.77996C13.2052 2.43771 13.719 2.25 14.25 2.25C14.781 2.25 15.2948 2.43771 15.7008 2.77996C16.1067 3.12221 16.3786 3.59695 16.4684 4.12027C16.5581 4.6436 16.46 5.1818 16.1913 5.63976C15.9226 6.09772 15.5006 6.44594 15 6.62287V11.6254C15 12.5205 14.6444 13.3789 14.0115 14.0119C13.3785 14.6448 12.5201 15.0004 11.625 15.0004C10.7299 15.0004 9.87145 14.6448 9.23851 14.0119C8.60558 13.3789 8.25 12.5205 8.25 11.6254V6.37537C8.25 5.87808 8.05246 5.40117 7.70083 5.04954C7.34919 4.69791 6.87228 4.50037 6.375 4.50037C5.87772 4.50037 5.40081 4.69791 5.04917 5.04954C4.69754 5.40117 4.5 5.87808 4.5 6.37537V11.2504H6.75L3.75 15.0004L0.75 11.2504H3ZM14.25 5.25037C14.4489 5.25037 14.6397 5.17135 14.7803 5.0307C14.921 4.89004 15 4.69928 15 4.50037C15 4.30145 14.921 4.11069 14.7803 3.97004C14.6397 3.82938 14.4489 3.75037 14.25 3.75037C14.0511 3.75037 13.8603 3.82938 13.7197 3.97004C13.579 4.11069 13.5 4.30145 13.5 4.50037C13.5 4.69928 13.579 4.89004 13.7197 5.0307C13.8603 5.17135 14.0511 5.25037 14.25 5.25037Z" fill="#BCC0CC"/>
</svg>
