<svg width="18" height="18" viewBox="0 0 18 18" fill="none" xmlns="http://www.w3.org/2000/svg">
<path d="M3 7.8V3C3 2.80109 3.07902 2.61032 3.21967 2.46967C3.36032 2.32902 3.55109 2.25 3.75 2.25H7.5V0.75H10.5V2.25H14.25C14.4489 2.25 14.6397 2.32902 14.7803 2.46967C14.921 2.61032 15 2.80109 15 3V7.8L15.8145 8.0445C15.9991 8.10005 16.1552 8.22452 16.2504 8.3921C16.3457 8.55968 16.3727 8.7575 16.326 8.9445L15.189 13.4955C14.7048 13.5205 14.2203 13.4512 13.7625 13.2915L14.7 9.2775L9 7.5L3.3 9.2775L4.2375 13.2908C3.77975 13.4507 3.29527 13.5203 2.811 13.4955L1.674 8.9445C1.62727 8.7575 1.65434 8.55968 1.74958 8.3921C1.84482 8.22452 2.00092 8.10005 2.1855 8.0445L3 7.8ZM4.5 7.35L9 6L13.5 7.35V3.75H4.5V7.35ZM3 15C4.1072 15.0015 5.17581 14.5933 6 13.854C6.82419 14.5933 7.8928 15.0015 9 15C10.1072 15.0015 11.1758 14.5933 12 13.854C12.8242 14.5933 13.8928 15.0015 15 15H16.5V16.5H15C13.9467 16.5017 12.9117 16.2249 12 15.6975C11.0883 16.2249 10.0533 16.5017 9 16.5C7.94673 16.5017 6.91174 16.2249 6 15.6975C5.08826 16.2249 4.05327 16.5017 3 16.5H1.5V15H3Z" fill="#BCC0CC"/>
</svg>
