<svg fill="none" height="48" viewBox="0 0 120 48" width="120" xmlns="http://www.w3.org/2000/svg" xmlns:xlink="http://www.w3.org/1999/xlink"><linearGradient id="a" gradientUnits="userSpaceOnUse" x1="2.58489" x2="8.13053" y1="23.7242" y2="51.99"><stop offset="0" stop-color="#3d71ff"/><stop offset="1" stop-color="#93cef5"/></linearGradient><linearGradient id="b"><stop offset="0" stop-color="#f5c793"/><stop offset="1" stop-color="#e6772e"/></linearGradient><linearGradient id="c" gradientUnits="userSpaceOnUse" x1="15.1017" x2="10.9286" xlink:href="#b" y1="43.7563" y2="22.486"/><linearGradient id="d" gradientUnits="userSpaceOnUse" x1="7.49647" x2="4.32795" xlink:href="#b" y1="47.4844" y2="31.3346"/><linearGradient id="e" gradientUnits="userSpaceOnUse" x1="27.0697" x2="25.1421" xlink:href="#b" y1="27.0631" y2="17.238"/><linearGradient id="f" gradientUnits="userSpaceOnUse" x1="30.3659" x2="29.0367" xlink:href="#b" y1="38.2507" y2="31.4761"/><linearGradient id="g" gradientUnits="userSpaceOnUse" x1="18.7448" x2="15.5644" xlink:href="#b" y1="25.5541" y2="9.34422"/><linearGradient id="h"><stop offset="0" stop-color="#1be0c6"/><stop offset="1" stop-color="#1dbbf5"/></linearGradient><linearGradient id="i" gradientUnits="userSpaceOnUse" x1="28.558" x2="29.2841" xlink:href="#h" y1="26.1626" y2="29.8637"/><linearGradient id="j" gradientUnits="userSpaceOnUse" x1="8.767" x2="9.49313" xlink:href="#h" y1="13.0176" y2="16.7187"/><linearGradient id="k" gradientUnits="userSpaceOnUse" x1="107.368" x2="58.1227" y1="9.78572" y2="49.9904"><stop offset="0" stop-color="#fffae8"/><stop offset=".753346" stop-color="#efa662"/></linearGradient><clipPath id="l"><rect height="48" rx="24" width="120"/></clipPath><g clip-path="url(#l)"><path d="m11.7609 21.9452c-.8874.7491 1.4574 5.0713 5.2408 9.6559 3.7834 4.5845 7.564 7.6972 8.4514 6.9481l.004.0205-35.896 17.0636-.8866-1.0764 23.0531-32.6264z" fill="url(#a)"/><path d="m16.9997 31.6016c-3.7805-4.5851-6.1253-8.9073-5.2408-9.6558.8844-.7485 4.6709 2.363 8.4514 6.9481s6.1258 8.9103 5.2408 9.6559c-.885.7455-4.6709-2.3631-8.4514-6.9482z" fill="#003e84"/><path d="m18.5398 41.8589-4.3711 2.0805-6.13042-16.7642 3.38102-4.7855z" fill="url(#c)"/><path d="m10.5294 45.6694-4.37167 2.0776-4.31437-11.8028 3.38099-4.7855z" fill="url(#d)"/><path d="m33.5085 19.8234-14.0067 8.7245 11.0054-12.3626z" fill="url(#e)"/><path d="m37.0832 36.9327-16.0478-3.8868 16.4573-.8224z" fill="url(#f)"/><path d="m14.5094 9.55122.8931 16.65868 3.7594-16.22103z" fill="url(#g)"/><path d="m27.7238 26.5621c-.3789.3241-.6154.7839-.6588 1.2805-.0434.4967.1099.9905.4268 1.3754.155.1901.3463.3475.5628.4629.2164.1155.4537.1868.6979.2098.2442.0229.4906-.0029.7248-.0761.2341-.0731.4514-.1921.6392-.35.3801-.3233.6175-.7832.661-1.2803.0434-.4971-.1107-.9913-.429-1.3755-.1551-.1902-.3464-.3475-.5628-.463-.2165-.1155-.4537-.1868-.698-.2097-.2442-.023-.4906.0029-.7247.076-.2342.0732-.4515.1921-.6392.35z" fill="url(#i)"/><path d="m7.93276 13.4171c-.37883.3241-.61537.7839-.65876 1.2805-.04339.4967.10985.9905.42675 1.3753.15505.1901.34636.3475.5628.463s.45369.1868.69793.2097c.24425.023.49061-.0029.72478-.076.23416-.0732.45144-.1921.63924-.35.38-.3233.6175-.7833.6609-1.2803.0435-.4971-.1106-.9913-.4289-1.3756-.1551-.1901-.3464-.3474-.56283-.4629-.21644-.1155-.4537-.1868-.69794-.2098-.24425-.0229-.49062.0029-.72478.0761-.23416.0731-.45144.1921-.63919.35z" fill="url(#j)"/><g fill="#e0516e"><path d="m22.686 11.6642c.2822.5356 1.1955.8915 1.1955.8915s.3222-.8695.0552-1.3919c-.267-.5225-.6795-.6835-1.0247-.5468-.3453.1367-.492.5129-.226 1.0472z"/><path d="m35.8989 25.059c.2822.5356 1.1955.8914 1.1955.8914s.3222-.8694.0552-1.3919c-.267-.5224-.6795-.6834-1.0247-.5467-.3453.1367-.492.5129-.226 1.0472z"/><path d="m24.673 15.5534c-.2814-.5338.055-1.3872.055-1.3872s.9226.3705 1.1892.8883c.2665.5177.1195.9015-.2221 1.0438-.3416.1424-.7544-.0003-1.0221-.5449z"/><path d="m37.8859 28.9477c-.2814-.5338.055-1.3872.055-1.3872s.9226.3705 1.1892.8882c.2665.5177.1195.9016-.2221 1.0439-.3416.1424-.7544-.0004-1.0221-.5449z"/><path d="m21.8754 13.1339c.5115.1868 1.2962-.1177 1.2962-.1177s-.3748-.7289-.8861-.9183-.8536-.0438-.967.2396.0453.6097.5569.7964z"/><path d="m35.0878 26.5282c.5115.1868 1.2962-.1177 1.2962-.1177s-.3748-.7289-.8861-.9183-.8536-.0438-.967.2396.0454.6096.5569.7964z"/><path d="m26.3178 14.6286c-.5115-.1875-.8859-.9221-.8859-.9221s.7849-.3062 1.2964-.1188c.5114.1875.6702.5125.5565.7998-.1137.2874-.4548.4179-.967.2411z"/><path d="m39.5302 28.0233c-.5115-.1874-.8858-.922-.8858-.922s.7848-.3062 1.2963-.1188c.5114.1874.6702.5125.5565.7998-.1137.2874-.4548.4179-.967.241z"/><path d="m22.6075 14.9749c.5332-.2669.8893-1.1955.8893-1.1955s-.8572-.3213-1.3906-.0512-.6833.6758-.546 1.0222c.1373.3463.5112.491 1.0473.2245z"/><path d="m35.8199 28.3696c.5332-.2668.8893-1.1955.8893-1.1955s-.8572-.3212-1.3906-.0511-.6833.6758-.546 1.0221.5112.4911 1.0473.2245z"/><path d="m26.4975 12.9866c-.5345.2851-1.3903-.0513-1.3903-.0513s.3675-.9239.8887-1.1905c.5212-.2665.9095-.1178 1.0471.224.1376.3417-.0097.7525-.5455 1.0178z"/><path d="m39.7104 26.3809c-.5345.2851-1.3903-.0513-1.3903-.0513s.3675-.924.8887-1.1905.9095-.1178 1.0471.2239c.1376.3418-.0097.7526-.5455 1.0179z"/><path d="m24.0745 15.787c.1879-.5127-.1206-1.2964-.1206-1.2964s-.7315.3746-.9166.8847c-.185.5102-.0466.8533.2387.9681.2852.1147.6108-.0465.7985-.5564z"/><path d="m37.2874 29.1816c.1878-.5127-.1206-1.2965-.1206-1.2965s-.7315.3747-.9166.8848c-.185.5101-.0466.8533.2386.968.2853.1148.6109-.0464.7986-.5563z"/><path d="m25.5639 11.3456c-.1849.5103-.9155.8852-.9155.8852s-.308-.784-.1203-1.2969.5099-.6689.7976-.5567.4259.4555.2382.9684z"/><path d="m38.7763 24.7404c-.1849.5103-.9155.8852-.9155.8852s-.308-.784-.1203-1.2969.5099-.6689.7976-.5567c.2878.1122.4259.4555.2382.9684z"/></g><g fill="url(#k)"><path d="m56.175 13.85-1.71 5.985h1.89c3.87 0 6.795.75 8.775 2.25 2.01 1.5 3.015 3.63 3.015 6.39 0 2.31-.615 4.35-1.845 6.12-1.23 1.74-2.955 3.09-5.175 4.05-2.19.93-4.71 1.395-7.56 1.395-2.34 0-4.515-.315-6.525-.945-1.98-.63-3.66-1.53-5.04-2.7l3.51-5.355c1.05.9 2.31 1.605 3.78 2.115 1.5.51 3.075.765 4.725.765 2.16 0 3.825-.39 4.995-1.17 1.17-.81 1.755-1.95 1.755-3.42 0-2.4-2.04-3.6-6.12-3.6h-8.55l5.13-17.73h19.26l-1.215 5.85z"/><path d="m78.4617 33.04c-.0453.1813-.068.4307-.068.748 0 1.1787.646 1.768 1.938 1.768.7027 0 1.4167-.2153 2.142-.646l.782 3.774c-1.1787.7253-2.6973 1.088-4.556 1.088-1.7227 0-3.1053-.4533-4.148-1.36s-1.564-2.1533-1.564-3.74c0-.4533.0567-.986.17-1.598l1.462-7.378h-2.822l.816-4.08h2.822l.884-4.454h5.304l-.884 4.454h4.556l-.816 4.08h-4.556z"/><path d="m100.989 20.936c2.04 0 3.661.544 4.862 1.632s1.802 2.6293 1.802 4.624c0 .7253-.079 1.4507-.238 2.176l-2.04 10.132h-5.304l1.972-9.792c.091-.3853.136-.8047.136-1.258 0-.952-.261-1.6773-.782-2.176s-1.303-.748-2.3459-.748c-1.36 0-2.4933.3967-3.4 1.19-.884.7707-1.4847 1.938-1.802 3.502l-1.836 9.282h-5.304l5.032-25.228h5.304l-1.7 8.602c1.564-1.292 3.4453-1.938 5.6439-1.938z"/></g></g></svg>