<svg width="64" height="64" viewBox="0 0 64 64" fill="none" xmlns="http://www.w3.org/2000/svg">
<g filter="url(#filter0_b_1199_27437)">
<circle cx="32" cy="32" r="28" fill="url(#paint0_linear_1199_27437)" fill-opacity="0.88"/>
<circle cx="32" cy="32" r="28" fill="url(#paint1_linear_1199_27437)"/>
</g>
<g filter="url(#filter1_f_1199_27437)">
<path d="M12.0376 36.3268C12.0127 35.8877 12 35.4453 12 35C12 22.2975 22.2975 12 35 12C35.4453 12 35.8877 12.0127 36.3268 12.0376C33.8368 10.736 31.0043 10 28 10C18.0589 10 10 18.0589 10 28C10 31.0043 10.736 33.8368 12.0376 36.3268Z" fill="white" fill-opacity="0.2"/>
</g>
<circle cx="32" cy="32" r="12" fill="url(#paint2_linear_1199_27437)" fill-opacity="0.88"/>
<circle cx="32" cy="32" r="12" fill="url(#paint3_radial_1199_27437)" fill-opacity="0.08"/>
<g opacity="0.72" filter="url(#filter2_f_1199_27437)">
<circle cx="26.5" cy="26.5" r="2.5" fill="white" fill-opacity="0.6"/>
</g>
<g opacity="0.48" filter="url(#filter3_f_1199_27437)">
<circle cx="37" cy="37" r="4" fill="white" fill-opacity="0.6"/>
</g>
<defs>
<filter id="filter0_b_1199_27437" x="-4" y="-4" width="72" height="72" filterUnits="userSpaceOnUse" color-interpolation-filters="sRGB">
<feFlood flood-opacity="0" result="BackgroundImageFix"/>
<feGaussianBlur in="BackgroundImageFix" stdDeviation="4"/>
<feComposite in2="SourceAlpha" operator="in" result="effect1_backgroundBlur_1199_27437"/>
<feBlend mode="normal" in="SourceGraphic" in2="effect1_backgroundBlur_1199_27437" result="shape"/>
</filter>
<filter id="filter1_f_1199_27437" x="2" y="2" width="42.3268" height="42.3268" filterUnits="userSpaceOnUse" color-interpolation-filters="sRGB">
<feFlood flood-opacity="0" result="BackgroundImageFix"/>
<feBlend mode="normal" in="SourceGraphic" in2="BackgroundImageFix" result="shape"/>
<feGaussianBlur stdDeviation="4" result="effect1_foregroundBlur_1199_27437"/>
</filter>
<filter id="filter2_f_1199_27437" x="22" y="22" width="9" height="9" filterUnits="userSpaceOnUse" color-interpolation-filters="sRGB">
<feFlood flood-opacity="0" result="BackgroundImageFix"/>
<feBlend mode="normal" in="SourceGraphic" in2="BackgroundImageFix" result="shape"/>
<feGaussianBlur stdDeviation="1" result="effect1_foregroundBlur_1199_27437"/>
</filter>
<filter id="filter3_f_1199_27437" x="29" y="29" width="16" height="16" filterUnits="userSpaceOnUse" color-interpolation-filters="sRGB">
<feFlood flood-opacity="0" result="BackgroundImageFix"/>
<feBlend mode="normal" in="SourceGraphic" in2="BackgroundImageFix" result="shape"/>
<feGaussianBlur stdDeviation="2" result="effect1_foregroundBlur_1199_27437"/>
</filter>
<linearGradient id="paint0_linear_1199_27437" x1="60" y1="-12.6718" x2="57.8962" y2="59.939" gradientUnits="userSpaceOnUse">
<stop stop-color="#93CEF5"/>
<stop offset="1" stop-color="#3D71FF"/>
</linearGradient>
<linearGradient id="paint1_linear_1199_27437" x1="32" y1="4" x2="32" y2="60" gradientUnits="userSpaceOnUse">
<stop stop-color="#E0516E"/>
<stop offset="1" stop-color="#FF99AD" stop-opacity="0.6"/>
</linearGradient>
<linearGradient id="paint2_linear_1199_27437" x1="32" y1="20" x2="32" y2="44" gradientUnits="userSpaceOnUse">
<stop offset="0.0097724" stop-color="#110B14"/>
<stop offset="1" stop-color="#0F0B14" stop-opacity="0.9"/>
</linearGradient>
<radialGradient id="paint3_radial_1199_27437" cx="0" cy="0" r="1" gradientUnits="userSpaceOnUse" gradientTransform="translate(32 32) rotate(90) scale(12)">
<stop stop-color="white" stop-opacity="0"/>
<stop offset="1" stop-color="white"/>
</radialGradient>
</defs>
</svg>
