<svg width="40" height="40" viewBox="0 0 40 40" fill="none" xmlns="http://www.w3.org/2000/svg">
<g filter="url(#filter0_b_8948_74262)">
<rect width="40" height="40" rx="20" fill="url(#paint0_linear_8948_74262)"/>
<path d="M16.9782 19.9998C16.9782 20.7734 17.2855 21.5153 17.8324 22.0622C18.3794 22.6092 19.1213 22.9165 19.8948 22.9165C20.6684 22.9165 21.4103 22.6092 21.9572 22.0622C22.5042 21.5153 22.8115 20.7734 22.8115 19.9998C22.8115 19.2263 22.5042 18.4844 21.9572 17.9374C21.4103 17.3905 20.6684 17.0832 19.8948 17.0832C19.1213 17.0832 18.3794 17.3905 17.8324 17.9374C17.2855 18.4844 16.9782 19.2263 16.9782 19.9998ZM31.2021 19.328C28.7334 14.1274 25.0016 11.5103 19.999 11.5103C14.9938 11.5103 11.2646 14.1274 8.79589 19.3306C8.69686 19.5402 8.64551 19.7693 8.64551 20.0011C8.64551 20.233 8.69686 20.462 8.79589 20.6717C11.2646 25.8722 14.9964 28.4894 19.999 28.4894C25.0042 28.4894 28.7334 25.8722 31.2021 20.6691C31.4027 20.2472 31.4027 19.7576 31.2021 19.328ZM19.8948 24.5832C17.3636 24.5832 15.3115 22.5311 15.3115 19.9998C15.3115 17.4686 17.3636 15.4165 19.8948 15.4165C22.4261 15.4165 24.4782 17.4686 24.4782 19.9998C24.4782 22.5311 22.4261 24.5832 19.8948 24.5832Z" fill="url(#paint1_linear_8948_74262)"/>
</g>
<defs>
<filter id="filter0_b_8948_74262" x="-6.66667" y="-6.66667" width="53.3333" height="53.3333" filterUnits="userSpaceOnUse" color-interpolation-filters="sRGB">
<feFlood flood-opacity="0" result="BackgroundImageFix"/>
<feGaussianBlur in="BackgroundImageFix" stdDeviation="3.33333"/>
<feComposite in2="SourceAlpha" operator="in" result="effect1_backgroundBlur_8948_74262"/>
<feBlend mode="normal" in="SourceGraphic" in2="effect1_backgroundBlur_8948_74262" result="shape"/>
</filter>
<linearGradient id="paint0_linear_8948_74262" x1="20" y1="0" x2="20" y2="40" gradientUnits="userSpaceOnUse">
<stop stop-color="white" stop-opacity="0.4"/>
<stop offset="1" stop-color="white" stop-opacity="0.1"/>
</linearGradient>
<linearGradient id="paint1_linear_8948_74262" x1="31.3525" y1="19.9998" x2="8.64551" y2="19.9998" gradientUnits="userSpaceOnUse">
<stop stop-color="#F5C793"/>
<stop offset="1" stop-color="#E6772E"/>
</linearGradient>
</defs>
</svg>
