<svg width="64" height="64" viewBox="0 0 64 64" fill="none" xmlns="http://www.w3.org/2000/svg">
<g filter="url(#filter0_b_1199_27434)">
<path d="M12 27H52V60H12V27Z" fill="url(#paint0_linear_1199_27434)" fill-opacity="0.88"/>
</g>
<g filter="url(#filter1_b_1199_27434)">
<rect x="12" y="4" width="40" height="23" fill="url(#paint1_linear_1199_27434)" fill-opacity="0.88"/>
</g>
<path d="M12 4H52L49.063 5.46849C49.0216 5.48921 48.9759 5.5 48.9295 5.5H15.0705C15.0241 5.5 14.9784 5.48921 14.937 5.46849L12 4Z" fill="white" fill-opacity="0.2"/>
<circle cx="32" cy="11.5" r="3.5" fill="#111214" fill-opacity="0.72"/>
<circle cx="32" cy="11.5" r="1.21154" fill="white" fill-opacity="0.2"/>
<g clip-path="url(#clip0_1199_27434)">
<rect x="31.1923" y="10.6923" width="1.61538" height="1.61538" rx="0.807692" fill="#222529"/>
<g filter="url(#filter2_f_1199_27434)">
<circle cx="32" cy="11.5" r="0.740385" stroke="#101114" stroke-width="0.134615"/>
</g>
<g filter="url(#filter3_f_1199_27434)">
<circle cx="31.9999" cy="11.4999" r="0.673077" fill="url(#paint2_radial_1199_27434)" fill-opacity="0.48"/>
</g>
</g>
<g filter="url(#filter4_f_1199_27434)">
<circle cx="32.0336" cy="11.1971" r="0.168269" fill="url(#paint3_radial_1199_27434)" fill-opacity="0.6"/>
</g>
<g filter="url(#filter5_f_1199_27434)">
<circle cx="31.6972" cy="11.0625" r="0.100962" fill="url(#paint4_radial_1199_27434)" fill-opacity="0.4"/>
</g>
<g filter="url(#filter6_f_1199_27434)">
<circle cx="32.6058" cy="11.5673" r="0.0673077" fill="url(#paint5_radial_1199_27434)" fill-opacity="0.4"/>
</g>
<circle cx="32" cy="20.5" r="3.25" fill="#111214" fill-opacity="0.72" stroke="url(#paint6_linear_1199_27434)" stroke-width="0.5"/>
<rect x="12" y="27" width="40" height="1" fill="black" fill-opacity="0.1"/>
<path d="M15 5.5L12 4V27H15V5.5Z" fill="url(#paint7_linear_1199_27434)" fill-opacity="0.2"/>
<path d="M49 5.5L52 4V27H49V5.5Z" fill="url(#paint8_linear_1199_27434)" fill-opacity="0.2"/>
<path d="M16 58L12 60V28H15L16 34V58Z" fill="url(#paint9_linear_1199_27434)" fill-opacity="0.2"/>
<path d="M48 58L52 60V28H49L48 34V58Z" fill="url(#paint10_linear_1199_27434)" fill-opacity="0.2"/>
<path d="M12 60H52L48.063 58.0315C48.0216 58.0108 47.9759 58 47.9295 58H16.0705C16.0241 58 15.9784 58.0108 15.937 58.0315L12 60Z" fill="black" fill-opacity="0.1"/>
<path d="M16 34H48L48.9421 28.3476C48.9724 28.1656 48.8321 28 48.6476 28H15.3524C15.1679 28 15.0276 28.1656 15.0579 28.3476L16 34Z" fill="url(#paint11_linear_1199_27434)"/>
<defs>
<filter id="filter0_b_1199_27434" x="4" y="19" width="56" height="49" filterUnits="userSpaceOnUse" color-interpolation-filters="sRGB">
<feFlood flood-opacity="0" result="BackgroundImageFix"/>
<feGaussianBlur in="BackgroundImageFix" stdDeviation="4"/>
<feComposite in2="SourceAlpha" operator="in" result="effect1_backgroundBlur_1199_27434"/>
<feBlend mode="normal" in="SourceGraphic" in2="effect1_backgroundBlur_1199_27434" result="shape"/>
</filter>
<filter id="filter1_b_1199_27434" x="4" y="-4" width="56" height="39" filterUnits="userSpaceOnUse" color-interpolation-filters="sRGB">
<feFlood flood-opacity="0" result="BackgroundImageFix"/>
<feGaussianBlur in="BackgroundImageFix" stdDeviation="4"/>
<feComposite in2="SourceAlpha" operator="in" result="effect1_backgroundBlur_1199_27434"/>
<feBlend mode="normal" in="SourceGraphic" in2="effect1_backgroundBlur_1199_27434" result="shape"/>
</filter>
<filter id="filter2_f_1199_27434" x="30.923" y="10.4231" width="2.15382" height="2.15385" filterUnits="userSpaceOnUse" color-interpolation-filters="sRGB">
<feFlood flood-opacity="0" result="BackgroundImageFix"/>
<feBlend mode="normal" in="SourceGraphic" in2="BackgroundImageFix" result="shape"/>
<feGaussianBlur stdDeviation="0.134615" result="effect1_foregroundBlur_1199_27434"/>
</filter>
<filter id="filter3_f_1199_27434" x="30.7883" y="10.2884" width="2.42311" height="2.42308" filterUnits="userSpaceOnUse" color-interpolation-filters="sRGB">
<feFlood flood-opacity="0" result="BackgroundImageFix"/>
<feBlend mode="normal" in="SourceGraphic" in2="BackgroundImageFix" result="shape"/>
<feGaussianBlur stdDeviation="0.269231" result="effect1_foregroundBlur_1199_27434"/>
</filter>
<filter id="filter4_f_1199_27434" x="31.798" y="10.9615" width="0.471163" height="0.471148" filterUnits="userSpaceOnUse" color-interpolation-filters="sRGB">
<feFlood flood-opacity="0" result="BackgroundImageFix"/>
<feBlend mode="normal" in="SourceGraphic" in2="BackgroundImageFix" result="shape"/>
<feGaussianBlur stdDeviation="0.0336538" result="effect1_foregroundBlur_1199_27434"/>
</filter>
<filter id="filter5_f_1199_27434" x="31.5289" y="10.8942" width="0.33652" height="0.336535" filterUnits="userSpaceOnUse" color-interpolation-filters="sRGB">
<feFlood flood-opacity="0" result="BackgroundImageFix"/>
<feBlend mode="normal" in="SourceGraphic" in2="BackgroundImageFix" result="shape"/>
<feGaussianBlur stdDeviation="0.0336538" result="effect1_foregroundBlur_1199_27434"/>
</filter>
<filter id="filter6_f_1199_27434" x="32.4711" y="11.4327" width="0.269259" height="0.269228" filterUnits="userSpaceOnUse" color-interpolation-filters="sRGB">
<feFlood flood-opacity="0" result="BackgroundImageFix"/>
<feBlend mode="normal" in="SourceGraphic" in2="BackgroundImageFix" result="shape"/>
<feGaussianBlur stdDeviation="0.0336538" result="effect1_foregroundBlur_1199_27434"/>
</filter>
<linearGradient id="paint0_linear_1199_27434" x1="52" y1="27" x2="51.2116" y2="59.9812" gradientUnits="userSpaceOnUse">
<stop stop-color="#3D71FF"/>
<stop offset="1" stop-color="#2054E6"/>
</linearGradient>
<linearGradient id="paint1_linear_1199_27434" x1="52" y1="-2.84733" x2="51.5029" y2="26.9917" gradientUnits="userSpaceOnUse">
<stop stop-color="#93CEF5"/>
<stop offset="1" stop-color="#3D71FF"/>
</linearGradient>
<radialGradient id="paint2_radial_1199_27434" cx="0" cy="0" r="1" gradientUnits="userSpaceOnUse" gradientTransform="translate(31.9999 11.9038) rotate(90) scale(0.740385)">
<stop stop-color="#A6C1F5"/>
<stop offset="1" stop-color="#222222" stop-opacity="0"/>
</radialGradient>
<radialGradient id="paint3_radial_1199_27434" cx="0" cy="0" r="1" gradientUnits="userSpaceOnUse" gradientTransform="translate(32.0336 11.1971) rotate(90) scale(0.168269)">
<stop stop-color="#D6E4FF" stop-opacity="0.6"/>
<stop offset="1" stop-color="white" stop-opacity="0.2"/>
</radialGradient>
<radialGradient id="paint4_radial_1199_27434" cx="0" cy="0" r="1" gradientUnits="userSpaceOnUse" gradientTransform="translate(31.6972 11.0625) rotate(90) scale(0.100962)">
<stop stop-color="white" stop-opacity="0.6"/>
<stop offset="1" stop-color="white" stop-opacity="0.2"/>
</radialGradient>
<radialGradient id="paint5_radial_1199_27434" cx="0" cy="0" r="1" gradientUnits="userSpaceOnUse" gradientTransform="translate(32.6058 11.5673) rotate(90) scale(0.0673077)">
<stop stop-color="white" stop-opacity="0.6"/>
<stop offset="1" stop-color="white" stop-opacity="0.2"/>
</radialGradient>
<linearGradient id="paint6_linear_1199_27434" x1="32" y1="17" x2="32" y2="24" gradientUnits="userSpaceOnUse">
<stop stop-color="white" stop-opacity="0.2"/>
<stop offset="1" stop-color="white" stop-opacity="0.1"/>
</linearGradient>
<linearGradient id="paint7_linear_1199_27434" x1="12" y1="4" x2="15.972" y2="4.18515" gradientUnits="userSpaceOnUse">
<stop stop-opacity="0.6"/>
<stop offset="1"/>
</linearGradient>
<linearGradient id="paint8_linear_1199_27434" x1="52" y1="4" x2="48.028" y2="4.18515" gradientUnits="userSpaceOnUse">
<stop stop-opacity="0.6"/>
<stop offset="1"/>
</linearGradient>
<linearGradient id="paint9_linear_1199_27434" x1="12" y1="60" x2="18.6137" y2="59.6307" gradientUnits="userSpaceOnUse">
<stop stop-opacity="0.6"/>
<stop offset="1"/>
</linearGradient>
<linearGradient id="paint10_linear_1199_27434" x1="52" y1="60" x2="45.3863" y2="59.6307" gradientUnits="userSpaceOnUse">
<stop stop-opacity="0.6"/>
<stop offset="1"/>
</linearGradient>
<linearGradient id="paint11_linear_1199_27434" x1="15" y1="32.8158" x2="49" y2="32.8158" gradientUnits="userSpaceOnUse">
<stop stop-color="#EBF1FF" stop-opacity="0.08"/>
<stop offset="1" stop-color="#EBF1FF" stop-opacity="0.12"/>
</linearGradient>
<clipPath id="clip0_1199_27434">
<rect x="31.1923" y="10.6923" width="1.61538" height="1.61538" rx="0.807692" fill="white"/>
</clipPath>
</defs>
</svg>
