<svg width="64" height="64" viewBox="0 0 64 64" fill="none" xmlns="http://www.w3.org/2000/svg">
<path fill-rule="evenodd" clip-rule="evenodd" d="M13.5 5.5H50.5V26.5H13.5V5.5ZM12 28V26.5V5.5V4H13.5H50.5H52V5.5V26.5V28V58.5V60H50.5H13.5H12V58.5V28ZM50.5 28V58.5H13.5V28H50.5ZM32 9.75C31.0335 9.75 30.25 10.5335 30.25 11.5C30.25 12.4665 31.0335 13.25 32 13.25C32.9665 13.25 33.75 12.4665 33.75 11.5C33.75 10.5335 32.9665 9.75 32 9.75ZM28.75 11.5C28.75 9.70507 30.2051 8.25 32 8.25C33.7949 8.25 35.25 9.70507 35.25 11.5C35.25 13.2949 33.7949 14.75 32 14.75C30.2051 14.75 28.75 13.2949 28.75 11.5ZM30.25 20.5C30.25 19.5335 31.0335 18.75 32 18.75C32.9665 18.75 33.75 19.5335 33.75 20.5C33.75 21.4665 32.9665 22.25 32 22.25C31.0335 22.25 30.25 21.4665 30.25 20.5ZM32 17.25C30.2051 17.25 28.75 18.7051 28.75 20.5C28.75 22.2949 30.2051 23.75 32 23.75C33.7949 23.75 35.25 22.2949 35.25 20.5C35.25 18.7051 33.7949 17.25 32 17.25Z" fill="#83868F"/>
</svg>
