<svg width="64" height="64" viewBox="0 0 64 64" fill="none" xmlns="http://www.w3.org/2000/svg">
<path fill-rule="evenodd" clip-rule="evenodd" d="M49 7V4H47V7H49ZM10.5 10.5H53.5V53.5H10.5V10.5ZM9 9H10.5H53.5H55V10.5V53.5V55H53.5H10.5H9V53.5V10.5V9ZM7 15H4V17H7V15ZM57 15H60V17H57V15ZM7 31H4V33H7V31ZM57 31H60V33H57V31ZM7 23H4V25H7V23ZM57 23H60V25H57V23ZM7 39H4V41H7V39ZM57 39H60V41H57V39ZM7 47H4V49H7V47ZM57 47H60V49H57V47ZM49 57V60H47V57H49ZM41 7V4H39V7H41ZM41 57V60H39V57H41ZM25 7V4H23V7H25ZM25 57V60H23V57H25ZM33 7V4H31V7H33ZM33 57V60H31V57H33ZM17 7V4H15V7H17ZM17 57V60H15V57H17ZM17 19C18.1046 19 19 18.1046 19 17C19 15.8954 18.1046 15 17 15C15.8954 15 15 15.8954 15 17C15 18.1046 15.8954 19 17 19Z" fill="#83868F"/>
</svg>
